
<svg xmlns="http://www.w3.org/2000/svg" version="1.1" xmlns:xlink="http://www.w3.org/1999/xlink" preserveAspectRatio="none" x="0px" y="0px" width="1920px" height="1080px" viewBox="0 0 1920 1080">
<defs>
<g id="Layer0_0_FILL">
<path fill="#000000" stroke="none" d="
M 234.45 220.7
Q 235.05 203 225.75 198.1 213.2 192.2 202.25 198.6 192.35 203.5 191.95 221.35 192.2 233.3 198 239.6 204.1 246.1 214.05 246.1 221.1 246.1 226.2 242.45
L 226.2 245.85 234.45 245.85 234.45 220.7
M 213.95 239.35
Q 207.9 239.35 204.2 234.85 200.6 230.65 200.35 221.35 200.05 207 208.95 203.2 221.7 199.8 225 210.35 226.1 213.4 226.15 223.95 226 226.5 225.65 229 225 233.7 221.9 236.55 218.8 239.35 213.95 239.35
M 254.3 204.5
Q 257.1 203.25 263.15 203.7
L 263.15 195.9
Q 255.3 195.15 249.4 198.05 243.4 200.9 241.45 205.4 239.45 209.85 239.55 218
L 239.55 245.85 247.8 245.85 247.8 223.65
Q 247.6 216.6 248 213.2 248.4 209.75 250 207.75 251.5 205.7 254.3 204.5
M 305.25 222.5
Q 305.35 221.1 305.35 220.35 305.35 208.3 299.15 201.7 292.95 195 283.2 195 273.1 195 266.8 201.8 260.5 208.55 260.5 220.85 260.5 232.7 266.75 239.3 273 245.85 283.65 245.85 292.15 245.85 297.6 241.75 303.05 237.6 305.05 230.1
L 296.15 230.1
Q 294.35 234.55 291.45 236.7 288.25 239.1 283.7 239.1 277.6 239.1 273.55 234.8 269.45 230.5 269 222.5
L 305.25 222.5
M 293.5 206.55
Q 296.05 209.65 296.6 215.75
L 269.45 215.75
Q 269.9 209.35 273.8 205.6 277.6 201.8 283.3 201.8 289.6 201.8 293.5 206.55
M 126.75 245.7
Q 133.75 245.7 138.85 242.05
L 138.85 263.45 147.1 263.45 147.1 220.3
Q 147.7 202.6 138.4 197.7 125.85 191.8 114.9 198.2 105 203.1 104.6 220.95 104.85 232.9 110.7 239.2 116.75 245.7 126.75 245.7
M 121.65 202.8
Q 134.35 199.4 137.7 209.95 138.75 213 138.8 223.55 138.65 226.1 138.3 228.6 137.7 233.25 134.6 236.1 131.45 238.9 126.65 238.9 120.55 238.9 116.85 234.45 113.3 230.25 113 220.95 112.7 206.55 121.65 202.8
M 18 185.25
Q 18 185.35 18 185.4
L 18 185.7
Q 18 187.75 18.5 190.25 19.15 193.75 20.5 196.6
L 20.5 196.65
Q 24.4 204.95 32.2 205.3
L 65.6 205.3
Q 65.1 207.051171875 65.1 209 65.1 212.6 66.85 215.6 68.7 218.5 72.2 220.15 75.65 221.85 84.75 224.15 91.05 225.75 92.85 226.95 95.3 228.6 95.3 231.35 95.3 234.45 92.55 236.8 89.8 239.1 84.45 239.1 78.8 239.1 75.65 236.45 72.9 234.2 72.1 230.2
L 63.7 230.2
Q 65.1 237.95 70 241.9 75 245.85 84.45 245.85 90.2 245.85 94.75 243.85 99.25 241.85 101.65 238.2 104.05 234.6 104.05 230.45 104.05 226.25 102.05 223.4 100.15 220.6 96.65 219.1 93.2 217.55 84.45 215.25 78 213.55 77.2 213.15 76.1 212.6 74.8 210.95 73.8 209.65 73.8 208.05 73.8 205.6 76.25 203.65 78.6 201.8 83.55 201.8 88.35 201.8 91 203.9 93.2 205.7 93.95 208.65
L 102.2 208.65
Q 101.45 203.9 99.35 201.15 97.35 198.3 93.05 196.7 88.65 195 82.95 195 79.15 195 75.9 196 74.2794921875 196.4765625 73 197.05
L 73 185.2
Q 72.95 183.05 72.45 180.5 71.8 177 70.5 174.15 70.45 174.15 70.45 174.1 66.6 165.8 58.75 165.4 58.7 165.4 58.65 165.4
L 18 165.5 18 185.25
M 21.15 168.6
L 32.7 168.6
Q 38.7 169 41.7 175.45 41.7 175.5 41.75 175.55 42.85 178 43.45 181.05
L 43.45 181.1
Q 43.9 183.35 43.9 185.25
L 43.9 185.3
Q 43.9 185.35 43.9 185.45
L 43.9 185.5
Q 43.9 187.65 44.4 190.2
L 44.4 190.25
Q 45.1 193.75 46.4 196.6
L 46.45 196.65
Q 48.05 200.05 50.3 202.15
L 32.4 202.15
Q 26.4 201.75 23.4 195.3 23.35 195.25 23.35 195.2 22.2 192.75 21.6 189.7
L 21.6 189.65
Q 21.2 187.5 21.15 185.65
L 21.15 185.4
Q 21.15 185.35 21.15 185.25
L 21.15 168.6
M 120.4 61.1
Q 117 62.1 115.1 63.5 112.55 65.35 111.05 68.15 109.6 70.85 109.6 74.1 109.6 77.7 111.35 80.7 113.2 83.6 116.7 85.25 120.15 86.95 129.25 89.25 135.55 90.85 137.35 92.05 139.8 93.7 139.8 96.45 139.8 99.55 137.05 101.9 134.3 104.2 128.95 104.2 123.3 104.2 120.15 101.55 117.4 99.3 116.6 95.3
L 108.2 95.3
Q 109.6 103.05 114.5 107 119.5 110.95 128.95 110.95 134.7 110.95 139.25 108.95 143.75 106.95 146.15 103.3 148.55 99.7 148.55 95.55 148.55 91.35 146.55 88.5 144.65 85.7 141.15 84.2 137.7 82.65 128.95 80.35 122.5 78.65 121.7 78.25 120.6 77.7 119.3 76.05 118.3 74.75 118.3 73.15 118.3 70.7 120.75 68.75 123.1 66.9 128.05 66.9 132.85 66.9 135.5 69 137.7 70.8 138.45 73.75
L 146.7 73.75
Q 145.95 69 143.85 66.25 141.85 63.4 137.55 61.8 133.15 60.1 127.45 60.1 123.65 60.1 120.4 61.1
M 189.9 197.7
L 181.7 197.7 181.7 222.15
Q 181.55 228.8 180 231.75 178.4 234.7 175.65 236.35 172.9 237.95 168.75 237.95 165.05 237.95 162.55 236.55 160.05 235.05 159.25 231.8 158.75 229.55 158.75 223.1
L 158.75 197.7 150.55 197.7 150.55 226.25
Q 150.55 231.5 151.05 234.25 151.55 237 153.35 239.4 155.05 241.8 158.95 243.8 162.8 245.85 167.15 245.85 172.55 245.85 175.25 245.15 179.1 244.05 181.65 240.9
L 181.65 245.85 189.9 245.85 189.9 197.7
M 191.6 85.4
Q 192.2 67.7 182.9 62.8 170.35 56.9 159.4 63.3 149.5 68.2 149.1 86.05 149.35 98 155.2 104.3 161.25 110.8 171.25 110.8 178.25 110.8 183.35 107.15
L 183.35 128.55 191.6 128.55 191.6 85.4
M 183.3 88.65
Q 183.15 91.2 182.8 93.7 182.2 98.35 179.1 101.2 175.95 104 171.15 104 165.05 104 161.35 99.55 157.8 95.35 157.5 86.05 157.2 71.65 166.15 67.9 178.85 64.5 182.2 75.05 183.25 78.1 183.3 88.65
M 195.05 62.8
L 195.05 91.35
Q 195.05 96.6 195.55 99.35 196.05 102.1 197.85 104.5 199.55 106.9 203.45 108.9 207.3 110.95 211.65 110.95 217.05 110.95 219.75 110.25 223.6 109.15 226.15 106
L 226.15 110.95 234.4 110.95 234.4 62.8 226.2 62.8 226.2 87.25
Q 226.05 93.9 224.5 96.85 222.9 99.8 220.15 101.45 217.4 103.05 213.25 103.05 209.55 103.05 207.05 101.65 204.55 100.15 203.75 96.9 203.25 94.65 203.25 88.2
L 203.25 62.8 195.05 62.8
M 307.65 68.8
L 307.65 61
Q 299.8 60.25 293.9 63.15 287.9 66 285.95 70.5 283.95 74.95 284.05 83.1
L 284.05 110.95 292.3 110.95 292.3 88.75
Q 292.1 81.7 292.5 78.3 292.9 74.85 294.5 72.85 296 70.8 298.8 69.6 301.6 68.35 307.65 68.8
M 278.95 85.8
Q 279.55 68.1 270.25 63.2 257.7 57.3 246.75 63.7 236.85 68.6 236.45 86.45 236.7 98.4 242.5 104.7 248.6 111.2 258.55 111.2 265.6 111.2 270.7 107.55
L 270.7 110.95 278.95 110.95 278.95 85.8
M 253.45 68.3
Q 266.2 64.9 269.5 75.45 270.6 78.5 270.65 89.05 270.5 91.6 270.15 94.1 269.5 98.8 266.4 101.65 263.3 104.45 258.45 104.45 252.4 104.45 248.7 99.95 245.1 95.75 244.85 86.45 244.55 72.1 253.45 68.3
M 537.7 204.35
Q 540.25 206.45 541.4 210.45
L 549.75 210.45
Q 548.35 203.1 543.3 199.1 538.25 195.05 530.35 195.05 524.05 195.05 518.7 198.05 513.35 200.95 510.75 206.85 508.2 212.8 508.2 220.7 508.2 232.85 514.25 239.4 520.3 245.9 530.3 245.9 538.25 245.9 543.75 241.15 549.2 236.45 550.5 228
L 542.25 228
Q 541.3 233.4 538.3 236.1 535.05 239.15 530.2 239.15 524.1 239.15 520.4 234.65 516.65 230.2 516.65 220.45 516.65 210.75 520.5 206.3 524.45 201.85 530.65 201.85 534.75 201.85 537.7 204.35
M 596.2 219.75
Q 596.2 208.2 589.85 201.7 583.5 195.05 573.5 195.05 564.5 195.05 558.15 200.45 550.65 207 550.65 220.5 550.65 232.8 557 239.35 563.25 245.9 573.5 245.9 579.8 245.9 585.2 242.9 590.6 239.95 593.4 234.6 596.2 229.2 596.2 219.75
M 573.5 201.9
Q 579.55 201.9 583.7 206.55 587.75 211.2 587.75 220.2 587.75 229.75 583.7 234.45 579.6 239.15 573.5 239.15 567.3 239.15 563.2 234.5 559.15 229.8 559.15 220.5 559.15 211.15 563.2 206.5 567.3 201.9 573.5 201.9
M 610.25 245.65
L 610.25 241.1
Q 610.1 236.4 606.15 235.95
L 600.55 235.95 600.55 245.65 610.25 245.65
M 352.7 210.55
Q 350.4 202.7 345.2 198.95 339.9 195.05 331.05 195.05 320.2 195.05 313.85 201.8 307.45 208.5 307.45 220.55 307.45 232.4 313.85 239.15 320.15 245.9 330.85 245.9 340.25 245.9 345.8 241.4 350.9 237.4 352.95 229.95 353.15 229.15 353.4 228.35
L 340.25 228.35
Q 339.2 231.7 337.45 233.3 335.1 235.4 331.4 235.4 326.5 235.4 323.65 231.85 320.7 228.3 320.7 219.6 320.7 211.8 323.6 208.5 326.4 205.2 331.25 205.2 334.9 205.2 337.15 207.15 338.7 208.4 339.45 210.55
L 352.7 210.55
M 444.45 210.55
Q 442.15 202.7 436.95 198.95 431.65 195.05 422.8 195.05 411.9 195.05 405.55 201.8 399.2 208.5 399.2 220.55 399.2 232.4 405.55 239.15 411.85 245.9 422.55 245.9 431.95 245.9 437.5 241.4 443.1 237 445.1 228.35
L 431.95 228.35
Q 430.95 231.7 429.15 233.3 426.8 235.4 423.15 235.4 418.25 235.4 415.4 231.85 412.45 228.3 412.45 219.6 412.45 211.8 415.35 208.5 418.15 205.2 423 205.2 426.6 205.2 428.9 207.15 430.4 208.4 431.2 210.55
L 444.45 210.55
M 484.9 236.3
Q 480.45 236.3 477.45 233.1 474.5 229.9 474.35 224.2
L 506.6 224.2
Q 506.85 209.4 500.6 202.25 494.3 195.05 483.45 195.05 473.8 195.05 467.45 201.95 461.15 208.75 461.15 220.85 461.15 231 466 237.6 472.05 245.9 484.75 245.9 492.75 245.9 498.1 242.25 503.45 238.5 505.9 231.5
L 492.3 231.5
Q 491.35 233.5 490 234.65 487.9 236.3 484.9 236.3
M 477.3 208
Q 480.05 204.9 484.25 204.9 488.15 204.9 490.9 207.85 493.65 210.75 493.8 216.3
L 474.6 216.3
Q 474.55 211.05 477.3 208
M 459.4 177.7
L 446.5 177.7 446.5 245.85 459.4 245.85 459.4 177.7
M 367.7 197.7
L 354.8 197.7 354.8 245.85 367.7 245.85 367.7 197.7
M 400 195.85
Q 392.5 194.3 383.9 197.05 372.6 202.75 372.75 217.95
L 372.75 245.8 385.45 245.8 385.6 224.25
Q 385.2 216.25 387.75 211.95 390.3 207.7 400 208.6
L 400 195.85
M 354.8 176.65
L 354.8 189.55 367.7 189.55 367.7 183.55
Q 367.55 177.2 362.35 176.65
L 354.8 176.65
M 349.75 87.6
Q 349.85 86.2 349.85 85.45 349.85 73.4 343.65 66.8 337.45 60.1 327.7 60.1 317.6 60.1 311.3 66.9 305 73.65 305 85.95 305 97.8 311.25 104.4 317.5 110.95 328.15 110.95 336.65 110.95 342.1 106.85 347.55 102.7 349.55 95.2
L 340.65 95.2
Q 338.85 99.65 335.95 101.8 332.75 104.2 328.2 104.2 322.1 104.2 318.05 99.9 313.95 95.6 313.5 87.6
L 349.75 87.6
M 338 71.65
Q 340.55 74.75 341.1 80.85
L 313.95 80.85
Q 314.4 74.45 318.3 70.7 322.1 66.9 327.8 66.9 334.1 66.9 338 71.65
M 469.5 73.7
L 469.5 60.95
Q 462 59.4 453.4 62.15 442.1 67.85 442.25 83.05
L 442.25 110.9 454.95 110.9 455.1 89.35
Q 454.7 81.35 457.25 77.05 459.8 72.8 469.5 73.7
M 437.2 62.8
L 424.3 62.8 424.3 110.95 437.2 110.95 437.2 62.8
M 422.45 95.05
Q 422.65 94.25 422.9 93.45
L 409.75 93.45
Q 408.7 96.8 406.95 98.4 404.6 100.5 400.9 100.5 396 100.5 393.15 96.95 390.2 93.4 390.2 84.7 390.2 76.9 393.1 73.6 395.9 70.3 400.75 70.3 404.4 70.3 406.65 72.25 408.2 73.5 408.95 75.65
L 422.2 75.65
Q 419.9 67.8 414.7 64.05 409.4 60.15 400.55 60.15 389.7 60.15 383.35 66.9 376.95 73.6 376.95 85.65 376.95 97.5 383.35 104.25 389.65 111 400.35 111 409.75 111 415.3 106.5 420.4 102.5 422.45 95.05
M 437.2 48.65
Q 437.05 42.3 431.85 41.75
L 424.3 41.75 424.3 54.65 437.2 54.65 437.2 48.65
M 528.9 42.8
L 516 42.8 516 110.95 528.9 110.95 528.9 42.8
M 513.95 75.65
Q 511.65 67.8 506.45 64.05 501.15 60.15 492.3 60.15 481.4 60.15 475.05 66.9 468.7 73.6 468.7 85.65 468.7 97.5 475.05 104.25 481.35 111 492.05 111 501.45 111 507 106.5 512.6 102.1 514.6 93.45
L 501.45 93.45
Q 500.45 96.8 498.65 98.4 496.3 100.5 492.65 100.5 487.75 100.5 484.9 96.95 481.95 93.4 481.95 84.7 481.95 76.9 484.85 73.6 487.65 70.3 492.5 70.3 496.1 70.3 498.4 72.25 499.9 73.5 500.7 75.65
L 513.95 75.65
M 605.25 71.95
Q 602.7 77.9 602.7 85.8 602.7 97.95 608.75 104.5 614.8 111 624.8 111 632.75 111 638.25 106.25 643.7 101.55 645 93.1
L 636.75 93.1
Q 635.8 98.5 632.8 101.2 629.55 104.25 624.7 104.25 618.6 104.25 614.9 99.75 611.15 95.3 611.15 85.55 611.15 75.85 615 71.4 618.95 66.95 625.15 66.95 629.25 66.95 632.2 69.45 634.75 71.55 635.9 75.55
L 644.25 75.55
Q 642.85 68.2 637.8 64.2 632.75 60.15 624.85 60.15 618.55 60.15 613.2 63.15 607.85 66.05 605.25 71.95
M 576.1 89.3
Q 576.35 74.5 570.1 67.35 563.8 60.15 552.95 60.15 543.3 60.15 536.95 67.05 530.65 73.85 530.65 85.95 530.65 96.1 535.5 102.7 541.55 111 554.25 111 562.25 111 567.6 107.35 572.95 103.6 575.4 96.6
L 561.8 96.6
Q 560.85 98.6 559.5 99.75 557.4 101.4 554.4 101.4 549.95 101.4 546.95 98.2 544 95 543.85 89.3
L 576.1 89.3
M 546.8 73.1
Q 549.55 70 553.75 70 557.65 70 560.4 72.95 563.15 75.85 563.3 81.4
L 544.1 81.4
Q 544.05 76.15 546.8 73.1
M 704.75 106.2
Q 704.6 101.5 700.65 101.05
L 695.05 101.05 695.05 110.75 704.75 110.75 704.75 106.2
M 684.35 66.8
Q 678 60.15 668 60.15 659 60.15 652.65 65.55 645.15 72.1 645.15 85.6 645.15 97.9 651.5 104.45 657.75 111 668 111 674.3 111 679.7 108 685.1 105.05 687.9 99.7 690.7 94.3 690.7 84.85 690.7 73.3 684.35 66.8
M 657.7 71.6
Q 661.8 67 668 67 674.05 67 678.2 71.65 682.25 76.3 682.25 85.3 682.25 94.85 678.2 99.55 674.1 104.25 668 104.25 661.8 104.25 657.7 99.6 653.65 94.9 653.65 85.6 653.65 76.25 657.7 71.6 Z"/>
</g>

<g id="sccLogo_0_Layer1_0_FILL">
<path fill="#000000" stroke="none" d="
M 44.75 -155.65
Q 44.721875 -155.7962890625 44.65 -155.95 20.2841796875 -208.147265625 -28.85 -210.55 -28.8970703125 -210.5494140625 -28.95 -210.55 -29.18515625 -210.5572265625 -29.4 -210.55 -29.4892578125 -210.5529296875 -29.6 -210.55
L -284.9 -210 -284.9 -85.95
Q -284.9015625 -85.5181640625 -284.9 -85.1
L -284.9 -83.45
Q -284.9009765625 -83.378515625 -284.9 -83.3
L -284.9 -83.25
Q -284.6490234375 -70.22734375 -281.65 -54.6
L -281.65 -54.55
Q -277.4384765625 -32.639453125 -269.2 -14.9 -269.1224609375 -14.705078125 -269.05 -14.55 -244.661328125 37.653125 -195.55 40 -195.4720703125 39.99921875 -195.45 40 -195.2041015625 40.00625 -195 40 -194.923828125 40.00234375 -194.85 40
L 60.7 40 60.65 -86.25
Q 60.6759765625 -86.2994140625 60.65 -86.4
L 60.65 -86.5
Q 60.3384765625 -99.801953125 57.25 -115.95
L 57.25 -115.95
Q 53.037890625 -137.862890625 44.75 -155.65
M -264.9 -83.45
Q -264.8990234375 -83.5 -264.9 -83.55
L -264.9 -85.15
Q -264.9015625 -85.518359375 -264.9 -85.9
L -264.9 -190.55 -192.55 -190.55
Q -154.896875 -187.9775390625 -135.95 -147.45 -135.8568359375 -147.252734375 -135.75 -147.1 -128.5787109375 -131.4658203125 -124.9 -112.3
L -124.85 -112.2
Q -122.118359375 -97.806640625 -122.1 -85.95
L -122.1 -85.85
Q -122.093359375 -85.246484375 -122.1 -84.65 -122.101171875 -84.5421875 -122.1 -84.45
L -122.1 -84.45
Q -121.9833984375 -71.0232421875 -118.9 -54.8 -118.8775390625 -54.689453125 -118.85 -54.6
L -118.85 -54.55
Q -114.6384765625 -32.639453125 -106.4 -14.9 -106.3224609375 -14.705078125 -106.25 -14.55 -96.1841796875 6.994921875 -81.9 20
L -194.45 20
Q -232.02578125 17.4701171875 -250.95 -23.05 -251.0435546875 -23.2482421875 -251.15 -23.45 -258.326953125 -39.0466796875 -262.05 -58.25 -262.041015625 -58.2802734375 -262.05 -58.35 -264.6529296875 -72.0279296875 -264.9 -83.45 Z"/>
</g>

<g id="start_0_Layer1_0_FILL">
<path fill="#000000" stroke="none" d="
M 37.8 13.5
Q 37.05 8.85 35 6.15 33 3.35 28.8 1.75 24.5 0.1 18.9 0.1 15.15 0.1 11.95 1.1 8.65 2.05 6.75 3.45 4.25 5.25 2.8 8 1.35 10.65 1.35 13.85 1.35 17.35 3.1 20.3 4.9 23.15 8.35 24.8 11.75 26.45 20.65 28.7 26.85 30.25 28.6 31.45 31 33.05 31 35.75 31 38.8 28.3 41.1 25.6 43.35 20.35 43.35 14.8 43.35 11.75 40.75 9.066796875 38.54296875 8.2 34.65
L 0 34.65
Q 1.35 42.25 6.2 46.1 11.1 50 20.35 50 26 50 30.45 48.05 34.9 46.05 37.25 42.5 39.6 38.95 39.6 34.9 39.6 30.75 37.65 27.95 35.75 25.2 32.35 23.75 28.95 22.25 20.35 19.95 14.05 18.3 13.25 17.9 12.15 17.35 10.9 15.75 9.9 14.45 9.9 12.9 9.9 10.5 12.3 8.6 14.6 6.75 19.5 6.75 24.2 6.75 26.8 8.85 28.957421875 10.584375 29.65 13.5
L 37.8 13.5
M 81.85 24.9
L 81.8 24.9
Q 82.430859375 7.527734375 73.3 2.75 61.00625 -3.073828125 50.25 3.25 40.5716796875 8.0470703125 40.15 25.55 40.4015625 37.3205078125 46.1 43.45 52.05 49.85 61.85 49.85 68.73515625 49.85 73.75 46.2
L 73.75 67.2 81.85 67.2 81.85 24.9
M 52.15 38.8
Q 48.659765625 34.6966796875 48.4 25.55 48.086328125 11.4748046875 56.85 7.75 69.337890625 4.3775390625 72.6 14.75 73.65 17.75 73.65 28.1 73.5333984375 30.6240234375 73.2 33.05 72.58046875 37.64765625 69.55 40.4 66.505078125 43.2009765625 61.75 43.2 55.8 43.2 52.15 38.8
M 93.25 2.75
L 85.2 2.75 85.2 30.75
Q 85.2044921875 35.904296875 85.7 38.6 86.186328125 41.287109375 87.9 43.65 89.6634765625 46.012890625 93.45 48 97.2453125 49.995703125 101.5 50 106.8 50 109.45 49.3 113.25 48.25 115.75 45.15
L 115.75 49.95 123.85 50 123.85 2.75 115.8 2.75 115.8 26.75
Q 115.65234375 33.2458984375 114.1 36.15 112.5482421875 39.0529296875 109.85 40.65 107.1505859375 42.248828125 103.1 42.25 99.45 42.2576171875 97 40.8 94.55 39.397265625 93.75 36.2 93.25 34 93.25 27.65
L 93.25 2.75
M 167.55 25.3
L 167.5 25.3
Q 168.130859375 7.927734375 159 3.15 146.70625 -2.673828125 135.95 3.65 126.2716796875 8.4470703125 125.85 25.95 126.1015625 37.7205078125 131.8 43.85 137.75 50.25 147.55 50.25 154.43515625 50.25 159.45 46.6
L 159.45 50 167.55 50 167.55 25.3
M 142.55 8.15
Q 155.037890625 4.7775390625 158.3 15.15 159.35 18.15 159.35 28.5 159.2333984375 31.0240234375 158.9 33.45 158.28046875 38.04765625 155.25 40.8 152.205078125 43.6009765625 147.45 43.6 141.5 43.6 137.85 39.2 134.359765625 35.0966796875 134.1 25.95 133.786328125 11.8748046875 142.55 8.15
M 195.7 8.65
L 195.65 1
Q 188.0212890625 0.237890625 182.15 3.05 176.33125 5.904296875 174.4 10.25 172.4556640625 14.6498046875 172.5 22.65
L 172.5 50 180.65 50 180.65 28.2
Q 180.4482421875 21.30078125 180.85 17.9 181.244921875 14.5572265625 182.75 12.55 184.3017578125 10.5984375 187.05 9.4 189.8083984375 8.1865234375 195.7 8.65
M 215.9 43.35
Q 209.9 43.35 205.9 39.15 201.9 34.95 201.45 27.1
L 237.05 27.1
Q 237.1 25.7 237.1 24.95 237.1 13.15 231.05 6.65 224.95 0.1 215.4 0.1 205.5 0.1 199.3 6.75 193.1 13.4 193.1 25.45 193.1 37.1 199.25 43.55 205.4 50 215.85 50 224.15 50 229.5 45.95 234.85 41.9 236.85 34.55
L 228.05 34.55
Q 226.332421875 38.8869140625 223.5 41 220.35 43.35 215.9 43.35
M 225.5 11.45
Q 228 14.45 228.55 20.45
L 201.9 20.45
Q 202.35 14.2 206.15 10.5 209.9 6.75 215.5 6.75 221.65 6.75 225.5 11.45
M 298.3 2.75
L 285.65 2.75 285.65 50 298.3 50 298.3 2.75
M 283.85 34.35
Q 284.0658203125 33.6025390625 284.25 32.8
L 271.35 32.8
Q 270.3693359375 36.123046875 268.6 37.7 266.3 39.75 262.7 39.75 257.9 39.75 255.1 36.25 252.2 32.75 252.2 24.25 252.2 16.6 255.05 13.35 257.8 10.1 262.55 10.1 266.1 10.1 268.35 12 269.83046875 13.244921875 270.55 15.35
L 283.6 15.35
Q 281.35 7.65 276.25 3.95 271.05 0.15 262.35 0.15 251.7 0.15 245.45 6.75 239.2 13.35 239.2 25.15 239.2 36.8 245.45 43.4 251.65 50.05 262.15 50.05 271.35 50.05 276.8 45.65 281.7806640625 41.7107421875 283.85 34.35
M 330 13.45
L 330 0.95
Q 322.6361328125 -0.6205078125 314.2 2.1 303.0806640625 7.70703125 303.25 22.6
L 303.25 49.95 315.7 49.95 315.85 28.8
Q 315.506640625 20.946484375 318 16.75 320.4953125 12.5537109375 330 13.45
M 373.6 15.35
Q 371.35 7.65 366.25 3.95 361.05 0.15 352.35 0.15 341.7 0.15 335.45 6.75 329.2 13.35 329.2 25.15 329.2 36.8 335.45 43.4 341.65 50.05 352.15 50.05 361.35 50.05 366.8 45.65 372.3 41.3 374.25 32.8
L 361.35 32.8
Q 360.3693359375 36.123046875 358.6 37.7 356.3 39.75 352.7 39.75 347.9 39.75 345.1 36.25 342.2 32.75 342.2 24.25 342.2 16.6 345.05 13.35 347.8 10.1 352.55 10.1 356.1 10.1 358.35 12 359.83046875 13.244921875 360.55 15.35
L 373.6 15.35
M 420.55 35.9
Q 419.64453125 37.8908203125 418.3 39 416.25 40.6 413.3 40.6 408.95 40.6 406 37.5 403.1 34.35 402.95 28.75
L 434.6 28.75
Q 434.85 14.25 428.7 7.2 422.55 0.15 411.9 0.15 402.4 0.15 396.2 6.9 390 13.6 390 25.45 390 35.4 394.75 41.9 400.7 50.05 413.15 50.05 421 50.05 426.25 46.45 431.5 42.8 433.9 35.9
L 420.55 35.9
M 419.2 12.7
Q 421.9 15.55 422.05 21
L 403.2 21
Q 403.15 15.85 405.85 12.85 408.55 9.8 412.65 9.8 416.5 9.8 419.2 12.7
M 476.95 15.25
Q 475.55 8.05 470.6 4.1 465.65 0.15 457.9 0.15 451.75 0.15 446.5 3.1 441.25 5.95 438.7 11.75 436.15 17.55 436.15 25.3 436.15 37.25 442.1 43.65 448.05 50.05 457.85 50.05 465.65 50.05 471.05 45.4 476.4 40.75 477.7 32.5
L 469.6 32.5
Q 468.6294921875 37.7951171875 465.7 40.45 462.5 43.4 457.75 43.4 451.8 43.4 448.15 39 444.45 34.65 444.45 25.05 444.45 15.55 448.25 11.2 452.1 6.8 458.2 6.8 462.25 6.8 465.1 9.25 467.5818359375 11.3400390625 468.7 15.25
L 476.95 15.25
M 522.55 24.4
Q 522.55 13.05 516.3 6.65 510.05 0.15 500.25 0.15 491.4 0.15 485.2 5.45 477.85 11.85 477.85 25.1 477.85 37.2 484.05 43.6 490.2 50.05 500.25 50.05 506.45 50.05 511.75 47.1 517.05 44.2 519.8 38.95 522.55 33.65 522.55 24.4
M 490.15 11.4
Q 494.15 6.85 500.25 6.85 506.2 6.85 510.25 11.45 514.25 16 514.25 24.85 514.25 34.2 510.25 38.8 506.25 43.4 500.25 43.4 494.15 43.4 490.15 38.85 486.15 34.25 486.15 25.1 486.15 15.95 490.15 11.4
M 536.25 45.35
Q 536.1388671875 40.68515625 532.3 40.25
L 526.75 40.25 526.75 49.75 536.25 49.75 536.25 45.35
M 388.3 -16.9
L 375.65 -16.9 375.65 50 388.3 50 388.3 -16.9
M 285.65 -17.9
L 285.65 -5.25 298.3 -5.25 298.3 -11.15
Q 298.130859375 -17.3615234375 293 -17.9
L 285.65 -17.9 Z"/>
</g>
</defs>

<g transform="matrix( 1, 0, 0, 1, 0,0) ">
<use xlink:href="#Layer0_0_FILL"/>
</g>

<g transform="matrix( 0.15924072265625, 0, 0, 0.15924072265625, 52.7,50.6) ">
<g transform="matrix( 1, 0, 0, 1, 110.9,84.55) ">
<g transform="matrix( 1, 0, 0, 1, 0,0) ">
<use xlink:href="#sccLogo_0_Layer1_0_FILL"/>
</g>
</g>
</g>

<g transform="matrix( 1.2740936279296875, 0, 0, 1.2740936279296875, 18,305.75) ">
<g transform="matrix( 0.79986572265625, 0, 0, 0.79986572265625, 35.9,23.15) ">
<g transform="matrix( 1, 0, 0, 1, 0,0) ">
<use xlink:href="#start_0_Layer1_0_FILL"/>
</g>
</g>

<g transform="matrix( 0.125, 0, 0, 0.125, 21.75,15.75) ">
<g transform="matrix( 1, 0, 0, 1, 110.9,84.55) ">
<g transform="matrix( 1, 0, 0, 1, 0,0) ">
<use xlink:href="#sccLogo_0_Layer1_0_FILL"/>
</g>
</g>
</g>
</g>
</svg>
